<?xml version="1.0" encoding="utf-8" standalone="no"?>
<!DOCTYPE svg PUBLIC "-//W3C//DTD SVG 1.1//EN"
  "http://www.w3.org/Graphics/SVG/1.1/DTD/svg11.dtd">
<svg xmlns:xlink="http://www.w3.org/1999/xlink" width="576pt" height="144pt" viewBox="0 0 576 144" xmlns="http://www.w3.org/2000/svg" version="1.1">
 <metadata>
  <rdf:RDF xmlns:dc="http://purl.org/dc/elements/1.1/" xmlns:cc="http://creativecommons.org/ns#" xmlns:rdf="http://www.w3.org/1999/02/22-rdf-syntax-ns#">
   <cc:Work>
    <dc:type rdf:resource="http://purl.org/dc/dcmitype/StillImage"/>
    <dc:date>2025-02-25T13:50:58.683086</dc:date>
    <dc:format>image/svg+xml</dc:format>
    <dc:creator>
     <cc:Agent>
      <dc:title>Matplotlib v3.10.0, https://matplotlib.org/</dc:title>
     </cc:Agent>
    </dc:creator>
   </cc:Work>
  </rdf:RDF>
 </metadata>
 <defs>
  <style type="text/css">*{stroke-linejoin: round; stroke-linecap: butt}</style>
 </defs>
 <g id="figure_1">
  <g id="patch_1">
   <path d="M 0 144 
L 576 144 
L 576 0 
L 0 0 
L 0 144 
z
" style="fill: none"/>
  </g>
  <g id="axes_1">
   <g id="patch_2">
    <path d="M 34.753053 121.196323 
L 299.126166 121.196323 
L 299.126166 20.45274 
L 34.753053 20.45274 
L 34.753053 121.196323 
z
" style="fill: none"/>
   </g>
   <g id="matplotlib.axis_1">
    <g id="xtick_1">
     <g id="line2d_1">
      <defs>
       <path id="m38e66a359a" d="M 0 0 
L 0 3.5 
" style="stroke: #262626; stroke-width: 0.8"/>
      </defs>
      <g>
       <use xlink:href="#m38e66a359a" x="81.104183" y="121.196323" style="fill: #262626; stroke: #262626; stroke-width: 0.8"/>
      </g>
     </g>
     <g id="text_1">
      <!-- stim -->
      <g style="fill: #262626" transform="translate(68.273402 138.21726) scale(0.14 -0.14)">
       <defs>
        <path id="ArialMT-73" d="M 197 991 
L 753 1078 
Q 800 744 1014 566 
Q 1228 388 1613 388 
Q 2000 388 2187 545 
Q 2375 703 2375 916 
Q 2375 1106 2209 1216 
Q 2094 1291 1634 1406 
Q 1016 1563 777 1677 
Q 538 1791 414 1992 
Q 291 2194 291 2438 
Q 291 2659 392 2848 
Q 494 3038 669 3163 
Q 800 3259 1026 3326 
Q 1253 3394 1513 3394 
Q 1903 3394 2198 3281 
Q 2494 3169 2634 2976 
Q 2775 2784 2828 2463 
L 2278 2388 
Q 2241 2644 2061 2787 
Q 1881 2931 1553 2931 
Q 1166 2931 1000 2803 
Q 834 2675 834 2503 
Q 834 2394 903 2306 
Q 972 2216 1119 2156 
Q 1203 2125 1616 2013 
Q 2213 1853 2448 1751 
Q 2684 1650 2818 1456 
Q 2953 1263 2953 975 
Q 2953 694 2789 445 
Q 2625 197 2315 61 
Q 2006 -75 1616 -75 
Q 969 -75 630 194 
Q 291 463 197 991 
z
" transform="scale(0.015625)"/>
        <path id="ArialMT-74" d="M 1650 503 
L 1731 6 
Q 1494 -44 1306 -44 
Q 1000 -44 831 53 
Q 663 150 594 308 
Q 525 466 525 972 
L 525 2881 
L 113 2881 
L 113 3319 
L 525 3319 
L 525 4141 
L 1084 4478 
L 1084 3319 
L 1650 3319 
L 1650 2881 
L 1084 2881 
L 1084 941 
Q 1084 700 1114 631 
Q 1144 563 1211 522 
Q 1278 481 1403 481 
Q 1497 481 1650 503 
z
" transform="scale(0.015625)"/>
        <path id="ArialMT-69" d="M 425 3934 
L 425 4581 
L 988 4581 
L 988 3934 
L 425 3934 
z
M 425 0 
L 425 3319 
L 988 3319 
L 988 0 
L 425 0 
z
" transform="scale(0.015625)"/>
        <path id="ArialMT-6d" d="M 422 0 
L 422 3319 
L 925 3319 
L 925 2853 
Q 1081 3097 1340 3245 
Q 1600 3394 1931 3394 
Q 2300 3394 2536 3241 
Q 2772 3088 2869 2813 
Q 3263 3394 3894 3394 
Q 4388 3394 4653 3120 
Q 4919 2847 4919 2278 
L 4919 0 
L 4359 0 
L 4359 2091 
Q 4359 2428 4304 2576 
Q 4250 2725 4106 2815 
Q 3963 2906 3769 2906 
Q 3419 2906 3187 2673 
Q 2956 2441 2956 1928 
L 2956 0 
L 2394 0 
L 2394 2156 
Q 2394 2531 2256 2718 
Q 2119 2906 1806 2906 
Q 1569 2906 1367 2781 
Q 1166 2656 1075 2415 
Q 984 2175 984 1722 
L 984 0 
L 422 0 
z
" transform="scale(0.015625)"/>
       </defs>
       <use xlink:href="#ArialMT-73"/>
       <use xlink:href="#ArialMT-74" transform="translate(50 0)"/>
       <use xlink:href="#ArialMT-69" transform="translate(77.783203 0)"/>
       <use xlink:href="#ArialMT-6d" transform="translate(100 0)"/>
      </g>
     </g>
    </g>
    <g id="xtick_2">
     <g id="line2d_2">
      <g>
       <use xlink:href="#m38e66a359a" x="166.939609" y="121.196323" style="fill: #262626; stroke: #262626; stroke-width: 0.8"/>
      </g>
     </g>
     <g id="text_2">
      <!-- prev. stim -->
      <g style="fill: #262626" transform="translate(137.119609 138.21726) scale(0.14 -0.14)">
       <defs>
        <path id="ArialMT-70" d="M 422 -1272 
L 422 3319 
L 934 3319 
L 934 2888 
Q 1116 3141 1344 3267 
Q 1572 3394 1897 3394 
Q 2322 3394 2647 3175 
Q 2972 2956 3137 2557 
Q 3303 2159 3303 1684 
Q 3303 1175 3120 767 
Q 2938 359 2589 142 
Q 2241 -75 1856 -75 
Q 1575 -75 1351 44 
Q 1128 163 984 344 
L 984 -1272 
L 422 -1272 
z
M 931 1641 
Q 931 1000 1190 694 
Q 1450 388 1819 388 
Q 2194 388 2461 705 
Q 2728 1022 2728 1688 
Q 2728 2322 2467 2637 
Q 2206 2953 1844 2953 
Q 1484 2953 1207 2617 
Q 931 2281 931 1641 
z
" transform="scale(0.015625)"/>
        <path id="ArialMT-72" d="M 416 0 
L 416 3319 
L 922 3319 
L 922 2816 
Q 1116 3169 1280 3281 
Q 1444 3394 1641 3394 
Q 1925 3394 2219 3213 
L 2025 2691 
Q 1819 2813 1613 2813 
Q 1428 2813 1281 2702 
Q 1134 2591 1072 2394 
Q 978 2094 978 1738 
L 978 0 
L 416 0 
z
" transform="scale(0.015625)"/>
        <path id="ArialMT-65" d="M 2694 1069 
L 3275 997 
Q 3138 488 2766 206 
Q 2394 -75 1816 -75 
Q 1088 -75 661 373 
Q 234 822 234 1631 
Q 234 2469 665 2931 
Q 1097 3394 1784 3394 
Q 2450 3394 2872 2941 
Q 3294 2488 3294 1666 
Q 3294 1616 3291 1516 
L 816 1516 
Q 847 969 1125 678 
Q 1403 388 1819 388 
Q 2128 388 2347 550 
Q 2566 713 2694 1069 
z
M 847 1978 
L 2700 1978 
Q 2663 2397 2488 2606 
Q 2219 2931 1791 2931 
Q 1403 2931 1139 2672 
Q 875 2413 847 1978 
z
" transform="scale(0.015625)"/>
        <path id="ArialMT-76" d="M 1344 0 
L 81 3319 
L 675 3319 
L 1388 1331 
Q 1503 1009 1600 663 
Q 1675 925 1809 1294 
L 2547 3319 
L 3125 3319 
L 1869 0 
L 1344 0 
z
" transform="scale(0.015625)"/>
        <path id="ArialMT-2e" d="M 581 0 
L 581 641 
L 1222 641 
L 1222 0 
L 581 0 
z
" transform="scale(0.015625)"/>
        <path id="ArialMT-20" transform="scale(0.015625)"/>
       </defs>
       <use xlink:href="#ArialMT-70"/>
       <use xlink:href="#ArialMT-72" transform="translate(55.615234 0)"/>
       <use xlink:href="#ArialMT-65" transform="translate(88.916016 0)"/>
       <use xlink:href="#ArialMT-76" transform="translate(144.53125 0)"/>
       <use xlink:href="#ArialMT-2e" transform="translate(187.15625 0)"/>
       <use xlink:href="#ArialMT-20" transform="translate(214.939453 0)"/>
       <use xlink:href="#ArialMT-73" transform="translate(242.722656 0)"/>
       <use xlink:href="#ArialMT-74" transform="translate(292.722656 0)"/>
       <use xlink:href="#ArialMT-69" transform="translate(320.505859 0)"/>
       <use xlink:href="#ArialMT-6d" transform="translate(342.722656 0)"/>
      </g>
     </g>
    </g>
    <g id="xtick_3">
     <g id="line2d_3">
      <g>
       <use xlink:href="#m38e66a359a" x="252.775036" y="121.196323" style="fill: #262626; stroke: #262626; stroke-width: 0.8"/>
      </g>
     </g>
     <g id="text_3">
      <!-- prev. resp -->
      <g style="fill: #262626" transform="translate(222.169723 138.21726) scale(0.14 -0.14)">
       <use xlink:href="#ArialMT-70"/>
       <use xlink:href="#ArialMT-72" transform="translate(55.615234 0)"/>
       <use xlink:href="#ArialMT-65" transform="translate(88.916016 0)"/>
       <use xlink:href="#ArialMT-76" transform="translate(144.53125 0)"/>
       <use xlink:href="#ArialMT-2e" transform="translate(187.15625 0)"/>
       <use xlink:href="#ArialMT-20" transform="translate(214.939453 0)"/>
       <use xlink:href="#ArialMT-72" transform="translate(242.722656 0)"/>
       <use xlink:href="#ArialMT-65" transform="translate(276.023438 0)"/>
       <use xlink:href="#ArialMT-73" transform="translate(331.638672 0)"/>
       <use xlink:href="#ArialMT-70" transform="translate(381.638672 0)"/>
      </g>
     </g>
    </g>
   </g>
   <g id="matplotlib.axis_2">
    <g id="ytick_1">
     <g id="line2d_4">
      <defs>
       <path id="m39e4f653f4" d="M 0 0 
L -3.5 0 
" style="stroke: #262626; stroke-width: 0.8"/>
      </defs>
      <g>
       <use xlink:href="#m39e4f653f4" x="34.753053" y="75.987958" style="fill: #262626; stroke: #262626; stroke-width: 0.8"/>
      </g>
     </g>
     <g id="text_4">
      <!-- 0 -->
      <g style="fill: #262626" transform="translate(19.96774 80.998427) scale(0.14 -0.14)">
       <defs>
        <path id="ArialMT-30" d="M 266 2259 
Q 266 3072 433 3567 
Q 600 4063 929 4331 
Q 1259 4600 1759 4600 
Q 2128 4600 2406 4451 
Q 2684 4303 2865 4023 
Q 3047 3744 3150 3342 
Q 3253 2941 3253 2259 
Q 3253 1453 3087 958 
Q 2922 463 2592 192 
Q 2263 -78 1759 -78 
Q 1097 -78 719 397 
Q 266 969 266 2259 
z
M 844 2259 
Q 844 1131 1108 757 
Q 1372 384 1759 384 
Q 2147 384 2411 759 
Q 2675 1134 2675 2259 
Q 2675 3391 2411 3762 
Q 2147 4134 1753 4134 
Q 1366 4134 1134 3806 
Q 844 3388 844 2259 
z
" transform="scale(0.015625)"/>
       </defs>
       <use xlink:href="#ArialMT-30"/>
      </g>
     </g>
    </g>
    <g id="ytick_2">
     <g id="line2d_5">
      <g>
       <use xlink:href="#m39e4f653f4" x="34.753053" y="28.766565" style="fill: #262626; stroke: #262626; stroke-width: 0.8"/>
      </g>
     </g>
     <g id="text_5">
      <!-- 1 -->
      <g style="fill: #262626" transform="translate(19.96774 33.777034) scale(0.14 -0.14)">
       <defs>
        <path id="ArialMT-31" d="M 2384 0 
L 1822 0 
L 1822 3584 
Q 1619 3391 1289 3197 
Q 959 3003 697 2906 
L 697 3450 
Q 1169 3672 1522 3987 
Q 1875 4303 2022 4600 
L 2384 4600 
L 2384 0 
z
" transform="scale(0.015625)"/>
       </defs>
       <use xlink:href="#ArialMT-31"/>
      </g>
     </g>
    </g>
    <g id="text_6">
     <!-- Weights -->
     <g style="fill: #262626" transform="translate(13.021178 95.987344) rotate(-90) scale(0.14 -0.14)">
      <defs>
       <path id="ArialMT-57" d="M 1294 0 
L 78 4581 
L 700 4581 
L 1397 1578 
Q 1509 1106 1591 641 
Q 1766 1375 1797 1488 
L 2669 4581 
L 3400 4581 
L 4056 2263 
Q 4303 1400 4413 641 
Q 4500 1075 4641 1638 
L 5359 4581 
L 5969 4581 
L 4713 0 
L 4128 0 
L 3163 3491 
Q 3041 3928 3019 4028 
Q 2947 3713 2884 3491 
L 1913 0 
L 1294 0 
z
" transform="scale(0.015625)"/>
       <path id="ArialMT-67" d="M 319 -275 
L 866 -356 
Q 900 -609 1056 -725 
Q 1266 -881 1628 -881 
Q 2019 -881 2231 -725 
Q 2444 -569 2519 -288 
Q 2563 -116 2559 434 
Q 2191 0 1641 0 
Q 956 0 581 494 
Q 206 988 206 1678 
Q 206 2153 378 2554 
Q 550 2956 876 3175 
Q 1203 3394 1644 3394 
Q 2231 3394 2613 2919 
L 2613 3319 
L 3131 3319 
L 3131 450 
Q 3131 -325 2973 -648 
Q 2816 -972 2473 -1159 
Q 2131 -1347 1631 -1347 
Q 1038 -1347 672 -1080 
Q 306 -813 319 -275 
z
M 784 1719 
Q 784 1066 1043 766 
Q 1303 466 1694 466 
Q 2081 466 2343 764 
Q 2606 1063 2606 1700 
Q 2606 2309 2336 2618 
Q 2066 2928 1684 2928 
Q 1309 2928 1046 2623 
Q 784 2319 784 1719 
z
" transform="scale(0.015625)"/>
       <path id="ArialMT-68" d="M 422 0 
L 422 4581 
L 984 4581 
L 984 2938 
Q 1378 3394 1978 3394 
Q 2347 3394 2619 3248 
Q 2891 3103 3008 2847 
Q 3125 2591 3125 2103 
L 3125 0 
L 2563 0 
L 2563 2103 
Q 2563 2525 2380 2717 
Q 2197 2909 1863 2909 
Q 1613 2909 1392 2779 
Q 1172 2650 1078 2428 
Q 984 2206 984 1816 
L 984 0 
L 422 0 
z
" transform="scale(0.015625)"/>
      </defs>
      <use xlink:href="#ArialMT-57"/>
      <use xlink:href="#ArialMT-65" transform="translate(92.634766 0)"/>
      <use xlink:href="#ArialMT-69" transform="translate(148.25 0)"/>
      <use xlink:href="#ArialMT-67" transform="translate(170.466797 0)"/>
      <use xlink:href="#ArialMT-68" transform="translate(226.082031 0)"/>
      <use xlink:href="#ArialMT-74" transform="translate(281.697266 0)"/>
      <use xlink:href="#ArialMT-73" transform="translate(309.480469 0)"/>
     </g>
    </g>
   </g>
   <g id="patch_3">
    <path d="M 46.770012 75.987958 
L 115.438353 75.987958 
L 115.438353 31.324104 
L 46.770012 31.324104 
z
" clip-path="url(#p18e626d958)" style="fill: #2c626b"/>
   </g>
   <g id="patch_4">
    <path d="M 132.605439 75.987958 
L 201.27378 75.987958 
L 201.27378 75.956206 
L 132.605439 75.956206 
z
" clip-path="url(#p18e626d958)" style="fill: #2c626b"/>
   </g>
   <g id="patch_5">
    <path d="M 218.440865 75.987958 
L 287.109207 75.987958 
L 287.109207 75.209838 
L 218.440865 75.209838 
z
" clip-path="url(#p18e626d958)" style="fill: #2c626b"/>
   </g>
   <g id="PathCollection_1">
    <defs>
     <path id="mcbb3716c2c" d="M -3 3 
L 3 -3 
M -3 -3 
L 3 3 
" style="stroke: #808080; stroke-opacity: 0.3; stroke-width: 1.5"/>
    </defs>
    <g clip-path="url(#p18e626d958)">
     <use xlink:href="#mcbb3716c2c" x="81.104183" y="35.529163" style="fill: #808080; fill-opacity: 0.3; stroke: #808080; stroke-opacity: 0.3; stroke-width: 1.5"/>
     <use xlink:href="#mcbb3716c2c" x="166.939609" y="75.360944" style="fill: #808080; fill-opacity: 0.3; stroke: #808080; stroke-opacity: 0.3; stroke-width: 1.5"/>
     <use xlink:href="#mcbb3716c2c" x="252.775036" y="75.112195" style="fill: #808080; fill-opacity: 0.3; stroke: #808080; stroke-opacity: 0.3; stroke-width: 1.5"/>
    </g>
   </g>
   <g id="PathCollection_2">
    <g clip-path="url(#p18e626d958)">
     <use xlink:href="#mcbb3716c2c" x="81.104183" y="30.57301" style="fill: #808080; fill-opacity: 0.3; stroke: #808080; stroke-opacity: 0.3; stroke-width: 1.5"/>
     <use xlink:href="#mcbb3716c2c" x="166.939609" y="76.300843" style="fill: #808080; fill-opacity: 0.3; stroke: #808080; stroke-opacity: 0.3; stroke-width: 1.5"/>
     <use xlink:href="#mcbb3716c2c" x="252.775036" y="75.157095" style="fill: #808080; fill-opacity: 0.3; stroke: #808080; stroke-opacity: 0.3; stroke-width: 1.5"/>
    </g>
   </g>
   <g id="PathCollection_3">
    <g clip-path="url(#p18e626d958)">
     <use xlink:href="#mcbb3716c2c" x="81.104183" y="27.684109" style="fill: #808080; fill-opacity: 0.3; stroke: #808080; stroke-opacity: 0.3; stroke-width: 1.5"/>
     <use xlink:href="#mcbb3716c2c" x="166.939609" y="75.127225" style="fill: #808080; fill-opacity: 0.3; stroke: #808080; stroke-opacity: 0.3; stroke-width: 1.5"/>
     <use xlink:href="#mcbb3716c2c" x="252.775036" y="76.331844" style="fill: #808080; fill-opacity: 0.3; stroke: #808080; stroke-opacity: 0.3; stroke-width: 1.5"/>
    </g>
   </g>
   <g id="PathCollection_4">
    <g clip-path="url(#p18e626d958)">
     <use xlink:href="#mcbb3716c2c" x="81.104183" y="26.463709" style="fill: #808080; fill-opacity: 0.3; stroke: #808080; stroke-opacity: 0.3; stroke-width: 1.5"/>
     <use xlink:href="#mcbb3716c2c" x="166.939609" y="75.363947" style="fill: #808080; fill-opacity: 0.3; stroke: #808080; stroke-opacity: 0.3; stroke-width: 1.5"/>
     <use xlink:href="#mcbb3716c2c" x="252.775036" y="74.885845" style="fill: #808080; fill-opacity: 0.3; stroke: #808080; stroke-opacity: 0.3; stroke-width: 1.5"/>
    </g>
   </g>
   <g id="PathCollection_5">
    <g clip-path="url(#p18e626d958)">
     <use xlink:href="#mcbb3716c2c" x="81.104183" y="32.151246" style="fill: #808080; fill-opacity: 0.3; stroke: #808080; stroke-opacity: 0.3; stroke-width: 1.5"/>
     <use xlink:href="#mcbb3716c2c" x="166.939609" y="76.917431" style="fill: #808080; fill-opacity: 0.3; stroke: #808080; stroke-opacity: 0.3; stroke-width: 1.5"/>
     <use xlink:href="#mcbb3716c2c" x="252.775036" y="75.555278" style="fill: #808080; fill-opacity: 0.3; stroke: #808080; stroke-opacity: 0.3; stroke-width: 1.5"/>
    </g>
   </g>
   <g id="PathCollection_6">
    <g clip-path="url(#p18e626d958)">
     <use xlink:href="#mcbb3716c2c" x="81.104183" y="37.160024" style="fill: #808080; fill-opacity: 0.3; stroke: #808080; stroke-opacity: 0.3; stroke-width: 1.5"/>
     <use xlink:href="#mcbb3716c2c" x="166.939609" y="76.093679" style="fill: #808080; fill-opacity: 0.3; stroke: #808080; stroke-opacity: 0.3; stroke-width: 1.5"/>
     <use xlink:href="#mcbb3716c2c" x="252.775036" y="75.591574" style="fill: #808080; fill-opacity: 0.3; stroke: #808080; stroke-opacity: 0.3; stroke-width: 1.5"/>
    </g>
   </g>
   <g id="PathCollection_7">
    <g clip-path="url(#p18e626d958)">
     <use xlink:href="#mcbb3716c2c" x="81.104183" y="33.131736" style="fill: #808080; fill-opacity: 0.3; stroke: #808080; stroke-opacity: 0.3; stroke-width: 1.5"/>
     <use xlink:href="#mcbb3716c2c" x="166.939609" y="75.689544" style="fill: #808080; fill-opacity: 0.3; stroke: #808080; stroke-opacity: 0.3; stroke-width: 1.5"/>
     <use xlink:href="#mcbb3716c2c" x="252.775036" y="76.31663" style="fill: #808080; fill-opacity: 0.3; stroke: #808080; stroke-opacity: 0.3; stroke-width: 1.5"/>
    </g>
   </g>
   <g id="PathCollection_8">
    <g clip-path="url(#p18e626d958)">
     <use xlink:href="#mcbb3716c2c" x="81.104183" y="30.253495" style="fill: #808080; fill-opacity: 0.3; stroke: #808080; stroke-opacity: 0.3; stroke-width: 1.5"/>
     <use xlink:href="#mcbb3716c2c" x="166.939609" y="75.471823" style="fill: #808080; fill-opacity: 0.3; stroke: #808080; stroke-opacity: 0.3; stroke-width: 1.5"/>
     <use xlink:href="#mcbb3716c2c" x="252.775036" y="75.285512" style="fill: #808080; fill-opacity: 0.3; stroke: #808080; stroke-opacity: 0.3; stroke-width: 1.5"/>
    </g>
   </g>
   <g id="PathCollection_9">
    <g clip-path="url(#p18e626d958)">
     <use xlink:href="#mcbb3716c2c" x="81.104183" y="34.026792" style="fill: #808080; fill-opacity: 0.3; stroke: #808080; stroke-opacity: 0.3; stroke-width: 1.5"/>
     <use xlink:href="#mcbb3716c2c" x="166.939609" y="78.483765" style="fill: #808080; fill-opacity: 0.3; stroke: #808080; stroke-opacity: 0.3; stroke-width: 1.5"/>
     <use xlink:href="#mcbb3716c2c" x="252.775036" y="71.022874" style="fill: #808080; fill-opacity: 0.3; stroke: #808080; stroke-opacity: 0.3; stroke-width: 1.5"/>
    </g>
   </g>
   <g id="PathCollection_10">
    <g clip-path="url(#p18e626d958)">
     <use xlink:href="#mcbb3716c2c" x="81.104183" y="33.496125" style="fill: #808080; fill-opacity: 0.3; stroke: #808080; stroke-opacity: 0.3; stroke-width: 1.5"/>
     <use xlink:href="#mcbb3716c2c" x="166.939609" y="75.354804" style="fill: #808080; fill-opacity: 0.3; stroke: #808080; stroke-opacity: 0.3; stroke-width: 1.5"/>
     <use xlink:href="#mcbb3716c2c" x="252.775036" y="76.033214" style="fill: #808080; fill-opacity: 0.3; stroke: #808080; stroke-opacity: 0.3; stroke-width: 1.5"/>
    </g>
   </g>
   <g id="PathCollection_11">
    <g clip-path="url(#p18e626d958)">
     <use xlink:href="#mcbb3716c2c" x="81.104183" y="25.031994" style="fill: #808080; fill-opacity: 0.3; stroke: #808080; stroke-opacity: 0.3; stroke-width: 1.5"/>
     <use xlink:href="#mcbb3716c2c" x="166.939609" y="75.578203" style="fill: #808080; fill-opacity: 0.3; stroke: #808080; stroke-opacity: 0.3; stroke-width: 1.5"/>
     <use xlink:href="#mcbb3716c2c" x="252.775036" y="75.752666" style="fill: #808080; fill-opacity: 0.3; stroke: #808080; stroke-opacity: 0.3; stroke-width: 1.5"/>
    </g>
   </g>
   <g id="PathCollection_12">
    <g clip-path="url(#p18e626d958)">
     <use xlink:href="#mcbb3716c2c" x="81.104183" y="30.387873" style="fill: #808080; fill-opacity: 0.3; stroke: #808080; stroke-opacity: 0.3; stroke-width: 1.5"/>
     <use xlink:href="#mcbb3716c2c" x="166.939609" y="75.732266" style="fill: #808080; fill-opacity: 0.3; stroke: #808080; stroke-opacity: 0.3; stroke-width: 1.5"/>
     <use xlink:href="#mcbb3716c2c" x="252.775036" y="75.473327" style="fill: #808080; fill-opacity: 0.3; stroke: #808080; stroke-opacity: 0.3; stroke-width: 1.5"/>
    </g>
   </g>
   <g id="line2d_6">
    <path clip-path="url(#p18e626d958)" style="fill: none; stroke: #424242; stroke-width: 2.25; stroke-linecap: round"/>
   </g>
   <g id="line2d_7">
    <path clip-path="url(#p18e626d958)" style="fill: none; stroke: #424242; stroke-width: 2.25; stroke-linecap: round"/>
   </g>
   <g id="line2d_8">
    <path clip-path="url(#p18e626d958)" style="fill: none; stroke: #424242; stroke-width: 2.25; stroke-linecap: round"/>
   </g>
   <g id="patch_6">
    <path d="M 34.753053 121.196322 
L 34.753053 20.45274 
" style="fill: none; stroke: #545454; stroke-width: 0.8; stroke-linejoin: miter; stroke-linecap: square"/>
   </g>
   <g id="patch_7">
    <path d="M 34.753053 121.196323 
L 299.126166 121.196323 
" style="fill: none; stroke: #545454; stroke-width: 0.8; stroke-linejoin: miter; stroke-linecap: square"/>
   </g>
   <g id="text_7">
    <!-- Engaged state -->
    <g style="fill: #262626" transform="translate(112.264609 14.45274) scale(0.16 -0.16)">
     <defs>
      <path id="Arial-BoldMT-45" d="M 466 0 
L 466 4581 
L 3863 4581 
L 3863 3806 
L 1391 3806 
L 1391 2791 
L 3691 2791 
L 3691 2019 
L 1391 2019 
L 1391 772 
L 3950 772 
L 3950 0 
L 466 0 
z
" transform="scale(0.015625)"/>
      <path id="Arial-BoldMT-6e" d="M 3478 0 
L 2600 0 
L 2600 1694 
Q 2600 2231 2544 2389 
Q 2488 2547 2361 2634 
Q 2234 2722 2056 2722 
Q 1828 2722 1647 2597 
Q 1466 2472 1398 2265 
Q 1331 2059 1331 1503 
L 1331 0 
L 453 0 
L 453 3319 
L 1269 3319 
L 1269 2831 
Q 1703 3394 2363 3394 
Q 2653 3394 2893 3289 
Q 3134 3184 3257 3021 
Q 3381 2859 3429 2653 
Q 3478 2447 3478 2063 
L 3478 0 
z
" transform="scale(0.015625)"/>
      <path id="Arial-BoldMT-67" d="M 378 -219 
L 1381 -341 
Q 1406 -516 1497 -581 
Q 1622 -675 1891 -675 
Q 2234 -675 2406 -572 
Q 2522 -503 2581 -350 
Q 2622 -241 2622 53 
L 2622 538 
Q 2228 0 1628 0 
Q 959 0 569 566 
Q 263 1013 263 1678 
Q 263 2513 664 2953 
Q 1066 3394 1663 3394 
Q 2278 3394 2678 2853 
L 2678 3319 
L 3500 3319 
L 3500 341 
Q 3500 -247 3403 -537 
Q 3306 -828 3131 -993 
Q 2956 -1159 2664 -1253 
Q 2372 -1347 1925 -1347 
Q 1081 -1347 728 -1058 
Q 375 -769 375 -325 
Q 375 -281 378 -219 
z
M 1163 1728 
Q 1163 1200 1367 954 
Q 1572 709 1872 709 
Q 2194 709 2416 961 
Q 2638 1213 2638 1706 
Q 2638 2222 2425 2472 
Q 2213 2722 1888 2722 
Q 1572 2722 1367 2476 
Q 1163 2231 1163 1728 
z
" transform="scale(0.015625)"/>
      <path id="Arial-BoldMT-61" d="M 1116 2306 
L 319 2450 
Q 453 2931 781 3162 
Q 1109 3394 1756 3394 
Q 2344 3394 2631 3255 
Q 2919 3116 3036 2902 
Q 3153 2688 3153 2116 
L 3144 1091 
Q 3144 653 3186 445 
Q 3228 238 3344 0 
L 2475 0 
Q 2441 88 2391 259 
Q 2369 338 2359 363 
Q 2134 144 1878 34 
Q 1622 -75 1331 -75 
Q 819 -75 523 203 
Q 228 481 228 906 
Q 228 1188 362 1408 
Q 497 1628 739 1745 
Q 981 1863 1438 1950 
Q 2053 2066 2291 2166 
L 2291 2253 
Q 2291 2506 2166 2614 
Q 2041 2722 1694 2722 
Q 1459 2722 1328 2630 
Q 1197 2538 1116 2306 
z
M 2291 1594 
Q 2122 1538 1756 1459 
Q 1391 1381 1278 1306 
Q 1106 1184 1106 997 
Q 1106 813 1243 678 
Q 1381 544 1594 544 
Q 1831 544 2047 700 
Q 2206 819 2256 991 
Q 2291 1103 2291 1419 
L 2291 1594 
z
" transform="scale(0.015625)"/>
      <path id="Arial-BoldMT-65" d="M 2381 1056 
L 3256 909 
Q 3088 428 2723 176 
Q 2359 -75 1813 -75 
Q 947 -75 531 491 
Q 203 944 203 1634 
Q 203 2459 634 2926 
Q 1066 3394 1725 3394 
Q 2466 3394 2894 2905 
Q 3322 2416 3303 1406 
L 1103 1406 
Q 1113 1016 1316 798 
Q 1519 581 1822 581 
Q 2028 581 2168 693 
Q 2309 806 2381 1056 
z
M 2431 1944 
Q 2422 2325 2234 2523 
Q 2047 2722 1778 2722 
Q 1491 2722 1303 2513 
Q 1116 2303 1119 1944 
L 2431 1944 
z
" transform="scale(0.015625)"/>
      <path id="Arial-BoldMT-64" d="M 3503 0 
L 2688 0 
L 2688 488 
Q 2484 203 2207 64 
Q 1931 -75 1650 -75 
Q 1078 -75 670 386 
Q 263 847 263 1672 
Q 263 2516 659 2955 
Q 1056 3394 1663 3394 
Q 2219 3394 2625 2931 
L 2625 4581 
L 3503 4581 
L 3503 0 
z
M 1159 1731 
Q 1159 1200 1306 963 
Q 1519 619 1900 619 
Q 2203 619 2415 876 
Q 2628 1134 2628 1647 
Q 2628 2219 2422 2470 
Q 2216 2722 1894 2722 
Q 1581 2722 1370 2473 
Q 1159 2225 1159 1731 
z
" transform="scale(0.015625)"/>
      <path id="Arial-BoldMT-20" transform="scale(0.015625)"/>
      <path id="Arial-BoldMT-73" d="M 150 947 
L 1031 1081 
Q 1088 825 1259 692 
Q 1431 559 1741 559 
Q 2081 559 2253 684 
Q 2369 772 2369 919 
Q 2369 1019 2306 1084 
Q 2241 1147 2013 1200 
Q 950 1434 666 1628 
Q 272 1897 272 2375 
Q 272 2806 612 3100 
Q 953 3394 1669 3394 
Q 2350 3394 2681 3172 
Q 3013 2950 3138 2516 
L 2309 2363 
Q 2256 2556 2107 2659 
Q 1959 2763 1684 2763 
Q 1338 2763 1188 2666 
Q 1088 2597 1088 2488 
Q 1088 2394 1175 2328 
Q 1294 2241 1995 2081 
Q 2697 1922 2975 1691 
Q 3250 1456 3250 1038 
Q 3250 581 2869 253 
Q 2488 -75 1741 -75 
Q 1063 -75 667 200 
Q 272 475 150 947 
z
" transform="scale(0.015625)"/>
      <path id="Arial-BoldMT-74" d="M 1981 3319 
L 1981 2619 
L 1381 2619 
L 1381 1281 
Q 1381 875 1398 808 
Q 1416 741 1477 697 
Q 1538 653 1625 653 
Q 1747 653 1978 738 
L 2053 56 
Q 1747 -75 1359 -75 
Q 1122 -75 931 4 
Q 741 84 652 211 
Q 563 338 528 553 
Q 500 706 500 1172 
L 500 2619 
L 97 2619 
L 97 3319 
L 500 3319 
L 500 3978 
L 1381 4491 
L 1381 3319 
L 1981 3319 
z
" transform="scale(0.015625)"/>
     </defs>
     <use xlink:href="#Arial-BoldMT-45"/>
     <use xlink:href="#Arial-BoldMT-6e" transform="translate(66.699219 0)"/>
     <use xlink:href="#Arial-BoldMT-67" transform="translate(127.783203 0)"/>
     <use xlink:href="#Arial-BoldMT-61" transform="translate(188.867188 0)"/>
     <use xlink:href="#Arial-BoldMT-67" transform="translate(244.482422 0)"/>
     <use xlink:href="#Arial-BoldMT-65" transform="translate(305.566406 0)"/>
     <use xlink:href="#Arial-BoldMT-64" transform="translate(361.181641 0)"/>
     <use xlink:href="#Arial-BoldMT-20" transform="translate(422.265625 0)"/>
     <use xlink:href="#Arial-BoldMT-73" transform="translate(450.048828 0)"/>
     <use xlink:href="#Arial-BoldMT-74" transform="translate(505.664062 0)"/>
     <use xlink:href="#Arial-BoldMT-61" transform="translate(538.964844 0)"/>
     <use xlink:href="#Arial-BoldMT-74" transform="translate(594.580078 0)"/>
     <use xlink:href="#Arial-BoldMT-65" transform="translate(627.880859 0)"/>
    </g>
   </g>
  </g>
  <g id="axes_2">
   <g id="patch_8">
    <path d="M 308.626646 121.196323 
L 572.99976 121.196323 
L 572.99976 20.45274 
L 308.626646 20.45274 
L 308.626646 121.196323 
z
" style="fill: none"/>
   </g>
   <g id="matplotlib.axis_3">
    <g id="xtick_4">
     <g id="line2d_9">
      <g>
       <use xlink:href="#m38e66a359a" x="354.977777" y="121.196323" style="fill: #262626; stroke: #262626; stroke-width: 0.8"/>
      </g>
     </g>
     <g id="text_8">
      <!-- stim -->
      <g style="fill: #262626" transform="translate(342.146995 138.21726) scale(0.14 -0.14)">
       <use xlink:href="#ArialMT-73"/>
       <use xlink:href="#ArialMT-74" transform="translate(50 0)"/>
       <use xlink:href="#ArialMT-69" transform="translate(77.783203 0)"/>
       <use xlink:href="#ArialMT-6d" transform="translate(100 0)"/>
      </g>
     </g>
    </g>
    <g id="xtick_5">
     <g id="line2d_10">
      <g>
       <use xlink:href="#m38e66a359a" x="440.813203" y="121.196323" style="fill: #262626; stroke: #262626; stroke-width: 0.8"/>
      </g>
     </g>
     <g id="text_9">
      <!-- prev. stim -->
      <g style="fill: #262626" transform="translate(410.993203 138.21726) scale(0.14 -0.14)">
       <use xlink:href="#ArialMT-70"/>
       <use xlink:href="#ArialMT-72" transform="translate(55.615234 0)"/>
       <use xlink:href="#ArialMT-65" transform="translate(88.916016 0)"/>
       <use xlink:href="#ArialMT-76" transform="translate(144.53125 0)"/>
       <use xlink:href="#ArialMT-2e" transform="translate(187.15625 0)"/>
       <use xlink:href="#ArialMT-20" transform="translate(214.939453 0)"/>
       <use xlink:href="#ArialMT-73" transform="translate(242.722656 0)"/>
       <use xlink:href="#ArialMT-74" transform="translate(292.722656 0)"/>
       <use xlink:href="#ArialMT-69" transform="translate(320.505859 0)"/>
       <use xlink:href="#ArialMT-6d" transform="translate(342.722656 0)"/>
      </g>
     </g>
    </g>
    <g id="xtick_6">
     <g id="line2d_11">
      <g>
       <use xlink:href="#m38e66a359a" x="526.64863" y="121.196323" style="fill: #262626; stroke: #262626; stroke-width: 0.8"/>
      </g>
     </g>
     <g id="text_10">
      <!-- prev. resp -->
      <g style="fill: #262626" transform="translate(496.043317 138.21726) scale(0.14 -0.14)">
       <use xlink:href="#ArialMT-70"/>
       <use xlink:href="#ArialMT-72" transform="translate(55.615234 0)"/>
       <use xlink:href="#ArialMT-65" transform="translate(88.916016 0)"/>
       <use xlink:href="#ArialMT-76" transform="translate(144.53125 0)"/>
       <use xlink:href="#ArialMT-2e" transform="translate(187.15625 0)"/>
       <use xlink:href="#ArialMT-20" transform="translate(214.939453 0)"/>
       <use xlink:href="#ArialMT-72" transform="translate(242.722656 0)"/>
       <use xlink:href="#ArialMT-65" transform="translate(276.023438 0)"/>
       <use xlink:href="#ArialMT-73" transform="translate(331.638672 0)"/>
       <use xlink:href="#ArialMT-70" transform="translate(381.638672 0)"/>
      </g>
     </g>
    </g>
   </g>
   <g id="matplotlib.axis_4">
    <g id="ytick_3">
     <g id="line2d_12">
      <g>
       <use xlink:href="#m39e4f653f4" x="308.626646" y="75.987958" style="fill: #262626; stroke: #262626; stroke-width: 0.8"/>
      </g>
     </g>
    </g>
    <g id="ytick_4">
     <g id="line2d_13">
      <g>
       <use xlink:href="#m39e4f653f4" x="308.626646" y="28.766565" style="fill: #262626; stroke: #262626; stroke-width: 0.8"/>
      </g>
     </g>
    </g>
   </g>
   <g id="patch_9">
    <path d="M 320.643606 75.987958 
L 389.311947 75.987958 
L 389.311947 87.975482 
L 320.643606 87.975482 
z
" clip-path="url(#pf981276762)" style="fill: #132a2e"/>
   </g>
   <g id="patch_10">
    <path d="M 406.479033 75.987958 
L 475.147374 75.987958 
L 475.147374 75.414543 
L 406.479033 75.414543 
z
" clip-path="url(#pf981276762)" style="fill: #132a2e"/>
   </g>
   <g id="patch_11">
    <path d="M 492.314459 75.987958 
L 560.9828 75.987958 
L 560.9828 79.211262 
L 492.314459 79.211262 
z
" clip-path="url(#pf981276762)" style="fill: #132a2e"/>
   </g>
   <g id="PathCollection_13">
    <g clip-path="url(#pf981276762)">
     <use xlink:href="#mcbb3716c2c" x="354.977777" y="94.948494" style="fill: #808080; fill-opacity: 0.3; stroke: #808080; stroke-opacity: 0.3; stroke-width: 1.5"/>
     <use xlink:href="#mcbb3716c2c" x="440.813203" y="72.089633" style="fill: #808080; fill-opacity: 0.3; stroke: #808080; stroke-opacity: 0.3; stroke-width: 1.5"/>
     <use xlink:href="#mcbb3716c2c" x="526.64863" y="89.656905" style="fill: #808080; fill-opacity: 0.3; stroke: #808080; stroke-opacity: 0.3; stroke-width: 1.5"/>
    </g>
   </g>
   <g id="PathCollection_14">
    <g clip-path="url(#pf981276762)">
     <use xlink:href="#mcbb3716c2c" x="354.977777" y="116.617069" style="fill: #808080; fill-opacity: 0.3; stroke: #808080; stroke-opacity: 0.3; stroke-width: 1.5"/>
     <use xlink:href="#mcbb3716c2c" x="440.813203" y="76.730826" style="fill: #808080; fill-opacity: 0.3; stroke: #808080; stroke-opacity: 0.3; stroke-width: 1.5"/>
     <use xlink:href="#mcbb3716c2c" x="526.64863" y="74.95756" style="fill: #808080; fill-opacity: 0.3; stroke: #808080; stroke-opacity: 0.3; stroke-width: 1.5"/>
    </g>
   </g>
   <g id="PathCollection_15">
    <g clip-path="url(#pf981276762)">
     <use xlink:href="#mcbb3716c2c" x="354.977777" y="77.470507" style="fill: #808080; fill-opacity: 0.3; stroke: #808080; stroke-opacity: 0.3; stroke-width: 1.5"/>
     <use xlink:href="#mcbb3716c2c" x="440.813203" y="75.235511" style="fill: #808080; fill-opacity: 0.3; stroke: #808080; stroke-opacity: 0.3; stroke-width: 1.5"/>
     <use xlink:href="#mcbb3716c2c" x="526.64863" y="73.906032" style="fill: #808080; fill-opacity: 0.3; stroke: #808080; stroke-opacity: 0.3; stroke-width: 1.5"/>
    </g>
   </g>
   <g id="PathCollection_16">
    <g clip-path="url(#pf981276762)">
     <use xlink:href="#mcbb3716c2c" x="354.977777" y="80.367695" style="fill: #808080; fill-opacity: 0.3; stroke: #808080; stroke-opacity: 0.3; stroke-width: 1.5"/>
     <use xlink:href="#mcbb3716c2c" x="440.813203" y="73.961802" style="fill: #808080; fill-opacity: 0.3; stroke: #808080; stroke-opacity: 0.3; stroke-width: 1.5"/>
     <use xlink:href="#mcbb3716c2c" x="526.64863" y="81.136619" style="fill: #808080; fill-opacity: 0.3; stroke: #808080; stroke-opacity: 0.3; stroke-width: 1.5"/>
    </g>
   </g>
   <g id="PathCollection_17">
    <g clip-path="url(#pf981276762)">
     <use xlink:href="#mcbb3716c2c" x="354.977777" y="86.820631" style="fill: #808080; fill-opacity: 0.3; stroke: #808080; stroke-opacity: 0.3; stroke-width: 1.5"/>
     <use xlink:href="#mcbb3716c2c" x="440.813203" y="77.139028" style="fill: #808080; fill-opacity: 0.3; stroke: #808080; stroke-opacity: 0.3; stroke-width: 1.5"/>
     <use xlink:href="#mcbb3716c2c" x="526.64863" y="81.919645" style="fill: #808080; fill-opacity: 0.3; stroke: #808080; stroke-opacity: 0.3; stroke-width: 1.5"/>
    </g>
   </g>
   <g id="PathCollection_18">
    <g clip-path="url(#pf981276762)">
     <use xlink:href="#mcbb3716c2c" x="354.977777" y="106.336929" style="fill: #808080; fill-opacity: 0.3; stroke: #808080; stroke-opacity: 0.3; stroke-width: 1.5"/>
     <use xlink:href="#mcbb3716c2c" x="440.813203" y="75.984703" style="fill: #808080; fill-opacity: 0.3; stroke: #808080; stroke-opacity: 0.3; stroke-width: 1.5"/>
     <use xlink:href="#mcbb3716c2c" x="526.64863" y="75.416738" style="fill: #808080; fill-opacity: 0.3; stroke: #808080; stroke-opacity: 0.3; stroke-width: 1.5"/>
    </g>
   </g>
   <g id="PathCollection_19">
    <g clip-path="url(#pf981276762)">
     <use xlink:href="#mcbb3716c2c" x="354.977777" y="97.993691" style="fill: #808080; fill-opacity: 0.3; stroke: #808080; stroke-opacity: 0.3; stroke-width: 1.5"/>
     <use xlink:href="#mcbb3716c2c" x="440.813203" y="77.199347" style="fill: #808080; fill-opacity: 0.3; stroke: #808080; stroke-opacity: 0.3; stroke-width: 1.5"/>
     <use xlink:href="#mcbb3716c2c" x="526.64863" y="84.165043" style="fill: #808080; fill-opacity: 0.3; stroke: #808080; stroke-opacity: 0.3; stroke-width: 1.5"/>
    </g>
   </g>
   <g id="PathCollection_20">
    <g clip-path="url(#pf981276762)">
     <use xlink:href="#mcbb3716c2c" x="354.977777" y="75.234111" style="fill: #808080; fill-opacity: 0.3; stroke: #808080; stroke-opacity: 0.3; stroke-width: 1.5"/>
     <use xlink:href="#mcbb3716c2c" x="440.813203" y="76.000282" style="fill: #808080; fill-opacity: 0.3; stroke: #808080; stroke-opacity: 0.3; stroke-width: 1.5"/>
     <use xlink:href="#mcbb3716c2c" x="526.64863" y="77.579579" style="fill: #808080; fill-opacity: 0.3; stroke: #808080; stroke-opacity: 0.3; stroke-width: 1.5"/>
    </g>
   </g>
   <g id="PathCollection_21">
    <g clip-path="url(#pf981276762)">
     <use xlink:href="#mcbb3716c2c" x="354.977777" y="77.837176" style="fill: #808080; fill-opacity: 0.3; stroke: #808080; stroke-opacity: 0.3; stroke-width: 1.5"/>
     <use xlink:href="#mcbb3716c2c" x="440.813203" y="74.41801" style="fill: #808080; fill-opacity: 0.3; stroke: #808080; stroke-opacity: 0.3; stroke-width: 1.5"/>
     <use xlink:href="#mcbb3716c2c" x="526.64863" y="75.070895" style="fill: #808080; fill-opacity: 0.3; stroke: #808080; stroke-opacity: 0.3; stroke-width: 1.5"/>
    </g>
   </g>
   <g id="PathCollection_22">
    <g clip-path="url(#pf981276762)">
     <use xlink:href="#mcbb3716c2c" x="354.977777" y="83.435868" style="fill: #808080; fill-opacity: 0.3; stroke: #808080; stroke-opacity: 0.3; stroke-width: 1.5"/>
     <use xlink:href="#mcbb3716c2c" x="440.813203" y="75.140524" style="fill: #808080; fill-opacity: 0.3; stroke: #808080; stroke-opacity: 0.3; stroke-width: 1.5"/>
     <use xlink:href="#mcbb3716c2c" x="526.64863" y="72.554643" style="fill: #808080; fill-opacity: 0.3; stroke: #808080; stroke-opacity: 0.3; stroke-width: 1.5"/>
    </g>
   </g>
   <g id="PathCollection_23">
    <g clip-path="url(#pf981276762)">
     <use xlink:href="#mcbb3716c2c" x="354.977777" y="73.997971" style="fill: #808080; fill-opacity: 0.3; stroke: #808080; stroke-opacity: 0.3; stroke-width: 1.5"/>
     <use xlink:href="#mcbb3716c2c" x="440.813203" y="76.397828" style="fill: #808080; fill-opacity: 0.3; stroke: #808080; stroke-opacity: 0.3; stroke-width: 1.5"/>
     <use xlink:href="#mcbb3716c2c" x="526.64863" y="80.344249" style="fill: #808080; fill-opacity: 0.3; stroke: #808080; stroke-opacity: 0.3; stroke-width: 1.5"/>
    </g>
   </g>
   <g id="PathCollection_24">
    <g clip-path="url(#pf981276762)">
     <use xlink:href="#mcbb3716c2c" x="354.977777" y="84.64564" style="fill: #808080; fill-opacity: 0.3; stroke: #808080; stroke-opacity: 0.3; stroke-width: 1.5"/>
     <use xlink:href="#mcbb3716c2c" x="440.813203" y="74.677027" style="fill: #808080; fill-opacity: 0.3; stroke: #808080; stroke-opacity: 0.3; stroke-width: 1.5"/>
     <use xlink:href="#mcbb3716c2c" x="526.64863" y="83.827237" style="fill: #808080; fill-opacity: 0.3; stroke: #808080; stroke-opacity: 0.3; stroke-width: 1.5"/>
    </g>
   </g>
   <g id="line2d_14">
    <path clip-path="url(#pf981276762)" style="fill: none; stroke: #424242; stroke-width: 2.25; stroke-linecap: round"/>
   </g>
   <g id="line2d_15">
    <path clip-path="url(#pf981276762)" style="fill: none; stroke: #424242; stroke-width: 2.25; stroke-linecap: round"/>
   </g>
   <g id="line2d_16">
    <path clip-path="url(#pf981276762)" style="fill: none; stroke: #424242; stroke-width: 2.25; stroke-linecap: round"/>
   </g>
   <g id="patch_12">
    <path d="M 308.626646 121.196322 
L 308.626646 20.45274 
" style="fill: none; stroke: #545454; stroke-width: 0.8; stroke-linejoin: miter; stroke-linecap: square"/>
   </g>
   <g id="patch_13">
    <path d="M 308.626646 121.196323 
L 572.99976 121.196323 
" style="fill: none; stroke: #545454; stroke-width: 0.8; stroke-linejoin: miter; stroke-linecap: square"/>
   </g>
   <g id="text_11">
    <!-- Disengaged state -->
    <g style="fill: #262626" transform="translate(374.576953 14.45274) scale(0.16 -0.16)">
     <defs>
      <path id="Arial-BoldMT-44" d="M 463 4581 
L 2153 4581 
Q 2725 4581 3025 4494 
Q 3428 4375 3715 4072 
Q 4003 3769 4153 3330 
Q 4303 2891 4303 2247 
Q 4303 1681 4163 1272 
Q 3991 772 3672 463 
Q 3431 228 3022 97 
Q 2716 0 2203 0 
L 463 0 
L 463 4581 
z
M 1388 3806 
L 1388 772 
L 2078 772 
Q 2466 772 2638 816 
Q 2863 872 3011 1006 
Q 3159 1141 3253 1448 
Q 3347 1756 3347 2288 
Q 3347 2819 3253 3103 
Q 3159 3388 2990 3547 
Q 2822 3706 2563 3763 
Q 2369 3806 1803 3806 
L 1388 3806 
z
" transform="scale(0.015625)"/>
      <path id="Arial-BoldMT-69" d="M 459 3769 
L 459 4581 
L 1338 4581 
L 1338 3769 
L 459 3769 
z
M 459 0 
L 459 3319 
L 1338 3319 
L 1338 0 
L 459 0 
z
" transform="scale(0.015625)"/>
     </defs>
     <use xlink:href="#Arial-BoldMT-44"/>
     <use xlink:href="#Arial-BoldMT-69" transform="translate(72.216797 0)"/>
     <use xlink:href="#Arial-BoldMT-73" transform="translate(100 0)"/>
     <use xlink:href="#Arial-BoldMT-65" transform="translate(155.615234 0)"/>
     <use xlink:href="#Arial-BoldMT-6e" transform="translate(211.230469 0)"/>
     <use xlink:href="#Arial-BoldMT-67" transform="translate(272.314453 0)"/>
     <use xlink:href="#Arial-BoldMT-61" transform="translate(333.398438 0)"/>
     <use xlink:href="#Arial-BoldMT-67" transform="translate(389.013672 0)"/>
     <use xlink:href="#Arial-BoldMT-65" transform="translate(450.097656 0)"/>
     <use xlink:href="#Arial-BoldMT-64" transform="translate(505.712891 0)"/>
     <use xlink:href="#Arial-BoldMT-20" transform="translate(566.796875 0)"/>
     <use xlink:href="#Arial-BoldMT-73" transform="translate(594.580078 0)"/>
     <use xlink:href="#Arial-BoldMT-74" transform="translate(650.195312 0)"/>
     <use xlink:href="#Arial-BoldMT-61" transform="translate(683.496094 0)"/>
     <use xlink:href="#Arial-BoldMT-74" transform="translate(739.111328 0)"/>
     <use xlink:href="#Arial-BoldMT-65" transform="translate(772.412109 0)"/>
    </g>
   </g>
  </g>
 </g>
 <defs>
  <clipPath id="p18e626d958">
   <rect x="34.753053" y="20.45274" width="264.373114" height="100.743583"/>
  </clipPath>
  <clipPath id="pf981276762">
   <rect x="308.626646" y="20.45274" width="264.373114" height="100.743583"/>
  </clipPath>
 </defs>
</svg>
